<svg width="18" height="17" viewBox="0 0 18 17" fill="none" xmlns="http://www.w3.org/2000/svg">
<path d="M8.625 15.2323C4.3875 15.2323 0.9375 12.0107 0.9375 8.05381C0.9375 4.09691 4.3875 0.875366 8.625 0.875366C12.8625 0.875366 16.3125 4.09691 16.3125 8.05381C16.3125 12.0107 12.8625 15.2323 8.625 15.2323ZM8.625 1.92587C5.0025 1.92587 2.0625 4.67819 2.0625 8.05381C2.0625 11.4294 5.0025 14.1817 8.625 14.1817C12.2475 14.1817 15.1875 11.4294 15.1875 8.05381C15.1875 4.67819 12.2475 1.92587 8.625 1.92587Z" fill="#000053" fill-opacity="0.3"/>
<path d="M16.5 15.9326C16.3575 15.9326 16.215 15.8836 16.1025 15.7786L14.6025 14.3779C14.385 14.1748 14.385 13.8386 14.6025 13.6355C14.82 13.4324 15.18 13.4324 15.3975 13.6355L16.8975 15.0362C17.115 15.2393 17.115 15.5755 16.8975 15.7786C16.785 15.8836 16.6425 15.9326 16.5 15.9326Z" fill="#000053" fill-opacity="0.3"/>
</svg>
